# xmcd
#
# Track frame offsets:
#	150
#	15913
#	33910
#	53516
#	72876
#	87032
#	98885
#	114138
#	134006
#	154821
#	170302
#	188367
#
# Disc length: 2665 seconds
# Revision: 0
# Processed by: cddbd v1.5.2PL0 Copyright (c) Steve Scherf et al.
# Submitted via: dBpowerAMP V12.0
#
DISCID=820a670c
DTITLE=Mustered Courage - Powerlines
DYEAR=2013
DGENRE=Bluegrass
TTITLE0=Standing By Your Side
TTITLE1=Cruel Alibis
TTITLE2=Behind the Bullet
TTITLE3=My Hometown
TTITLE4=Allegheny
TTITLE5=Townin' the Chain
TTITLE6=Southern Style
TTITLE7=Powerlines
TTITLE8=Go To Hell
TTITLE9=Miss My Ways
TTITLE10=Old Steam Train
TTITLE11=Still Shinin'
EXTD=
EXTT0=
EXTT1=
EXTT2=
EXTT3=
EXTT4=
EXTT5=
EXTT6=
EXTT7=
EXTT8=
EXTT9=
EXTT10=
EXTT11=
PLAYORDER=
